<svg width="45" height="45" viewBox="0 0 45 45" fill="none" xmlns="http://www.w3.org/2000/svg">
<g clip-path="url(#clip0_2413_20699)">
<path d="M6.21642 12.3726C5.81025 11.9674 5.48805 11.4863 5.26823 10.9569C5.04841 10.4275 4.93527 9.86014 4.93527 9.28713C4.93527 8.71411 5.04841 8.1467 5.26823 7.6173C5.48805 7.08791 5.81024 6.60688 6.21642 6.2017C6.62259 5.79651 7.10479 5.4751 7.63548 5.25582C8.16618 5.03654 8.73497 4.92367 9.30938 4.92367C9.8838 4.92367 10.4526 5.03654 10.9833 5.25582C11.514 5.4751 11.9962 5.79651 12.4023 6.2017L18.9939 12.7772L22.4835 9.29616L15.8919 2.72065C14.1394 1.01177 11.782 0.0611746 9.33135 0.0751021C6.88068 0.0890295 4.53436 1.06636 2.80145 2.79505C1.06854 4.52374 0.0888198 6.86434 0.0748583 9.30904C0.0608968 11.7537 1.01382 14.1053 2.72687 15.8536L9.31844 22.4291L12.808 18.9481L6.21642 12.3726Z" fill="url(#paint0_linear_2413_20699)"/>
<path d="M35.6507 22.429L32.1612 25.91L38.7527 32.4873C39.1589 32.8925 39.4811 33.3735 39.7009 33.9029C39.9207 34.4323 40.0339 34.9997 40.0339 35.5727C40.0339 36.1458 39.9207 36.7132 39.7009 37.2426C39.4811 37.772 39.1589 38.253 38.7527 38.6582C38.3466 39.0634 37.8644 39.3848 37.3337 39.604C36.803 39.8233 36.2342 39.9362 35.6598 39.9362C35.0854 39.9362 34.5166 39.8233 33.9859 39.604C33.4552 39.3848 32.973 39.0634 32.5668 38.6582L25.9734 32.0827L22.4839 35.5637L29.0773 42.1392C29.9381 43.0177 30.9651 43.7171 32.0987 44.1969C33.2324 44.6767 34.4503 44.9274 35.6817 44.9344C36.9132 44.9414 38.1338 44.7046 39.2729 44.2377C40.412 43.7708 41.4469 43.0831 42.3177 42.2145C43.1885 41.3458 43.8779 40.3134 44.3459 39.1771C44.8139 38.0408 45.0513 36.8231 45.0443 35.5947C45.0373 34.3662 44.786 33.1513 44.305 32.0204C43.8241 30.8895 43.1229 29.865 42.2423 29.0063L35.6507 22.429Z" fill="url(#paint1_linear_2413_20699)"/>
<path d="M25.9737 12.778L22.4844 16.2588L28.6704 22.4297L32.1597 18.9489L25.9737 12.778Z" fill="url(#paint2_linear_2413_20699)"/>
<path d="M16.2964 22.4301L12.8071 25.9109L18.9931 32.0818L22.4824 28.601L16.2964 22.4301Z" fill="url(#paint3_linear_2413_20699)"/>
<path d="M12.4025 38.6582C11.9963 39.0634 11.5141 39.3848 10.9834 39.604C10.4527 39.8233 9.88391 39.9362 9.30949 39.9362C8.73507 39.9362 8.16628 39.8233 7.63559 39.604C7.1049 39.3848 6.6227 39.0634 6.21652 38.6582C5.81035 38.253 5.48815 37.772 5.26834 37.2426C5.04852 36.7132 4.93538 36.1458 4.93538 35.5727C4.93538 34.9997 5.04852 34.4323 5.26834 33.9029C5.48815 33.3735 5.81035 32.8925 6.21652 32.4873L12.8081 25.9118L9.31854 22.429L2.72698 29.0063C1.84632 29.865 1.1452 30.8895 0.66422 32.0204C0.183244 33.1513 -0.0680285 34.3662 -0.0750442 35.5947C-0.0820599 36.8231 0.15532 38.0408 0.623349 39.1771C1.09138 40.3134 1.78075 41.3458 2.65155 42.2145C3.52234 43.0831 4.55725 43.7708 5.69634 44.2377C6.83543 44.7046 8.05605 44.9414 9.28752 44.9344C10.519 44.9274 11.7368 44.6767 12.8705 44.1969C14.0042 43.7171 15.0312 43.0177 15.892 42.1392L22.4836 35.5637L18.994 32.0827L12.4025 38.6582Z" fill="url(#paint4_linear_2413_20699)"/>
<path d="M18.9946 12.7781L12.8086 18.949L16.2979 22.4298L22.4839 16.2589L18.9946 12.7781Z" fill="url(#paint5_linear_2413_20699)"/>
<path d="M28.6689 22.4299L22.4829 28.6008L25.9722 32.0816L32.1582 25.9107L28.6689 22.4299Z" fill="url(#paint6_linear_2413_20699)"/>
<path d="M32.5668 6.20168C32.973 5.7965 33.4552 5.47509 33.9859 5.2558C34.5166 5.03652 35.0854 4.92365 35.6598 4.92365C36.2342 4.92365 36.803 5.03652 37.3337 5.2558C37.8644 5.47509 38.3466 5.7965 38.7527 6.20168C39.1589 6.60686 39.4811 7.08789 39.7009 7.61729C39.9207 8.14669 40.0339 8.71409 40.0339 9.28711C40.0339 9.86013 39.9207 10.4275 39.7009 10.9569C39.4811 11.4863 39.1589 11.9674 38.7527 12.3725L32.1612 18.9498L35.6507 22.4291L42.2423 15.8536C43.1229 14.9949 43.8241 13.9704 44.305 12.8395C44.786 11.7085 45.0373 10.4937 45.0443 9.2652C45.0513 8.03673 44.8139 6.81907 44.3459 5.68276C43.8779 4.54645 43.1885 3.51406 42.3177 2.64539C41.4469 1.77672 40.412 1.08902 39.2729 0.622135C38.1338 0.155247 36.9132 -0.0815549 35.6817 -0.0745563C34.4503 -0.0675577 33.2324 0.183102 32.0987 0.662907C30.9651 1.14271 29.9381 1.84212 29.0773 2.72064L22.4839 9.29614L25.9734 12.7772L32.5668 6.20168Z" fill="url(#paint7_linear_2413_20699)"/>
<path d="M22.4844 9.29801L18.9951 12.7788L22.4844 16.2596L25.9737 12.7788L22.4844 9.29801Z" fill="#0E3BB9"/>
<path d="M22.4849 28.6003L18.9956 32.0811L22.4849 35.5619L25.9742 32.0811L22.4849 28.6003Z" fill="#0E3BB9"/>
<path d="M12.8091 18.9484L9.31982 22.4292L12.8091 25.91L16.2984 22.4292L12.8091 18.9484Z" fill="#0E3BB9"/>
<path d="M32.1607 18.9482L28.6714 22.429L32.1607 25.9098L35.65 22.429L32.1607 18.9482Z" fill="#0E3BB9"/>
</g>
<defs>
<linearGradient id="paint0_linear_2413_20699" x1="2.89528" y1="1.61872" x2="39.2536" y2="42.894" gradientUnits="userSpaceOnUse">
<stop stop-color="#02C2CC"/>
<stop offset="0.51" stop-color="#4174DA"/>
<stop offset="1" stop-color="#7D2AE7"/>
</linearGradient>
<linearGradient id="paint1_linear_2413_20699" x1="4.20678" y1="0.462436" x2="40.5669" y2="41.7377" gradientUnits="userSpaceOnUse">
<stop stop-color="#02C2CC"/>
<stop offset="0.51" stop-color="#4174DA"/>
<stop offset="1" stop-color="#7D2AE7"/>
</linearGradient>
<linearGradient id="paint2_linear_2413_20699" x1="8.67091" y1="-3.4691" x2="45.0292" y2="37.8061" gradientUnits="userSpaceOnUse">
<stop stop-color="#02C2CC"/>
<stop offset="0.51" stop-color="#4174DA"/>
<stop offset="1" stop-color="#7D2AE7"/>
</linearGradient>
<linearGradient id="paint3_linear_2413_20699" x1="-1.56842" y1="5.5504" x2="34.7917" y2="46.8256" gradientUnits="userSpaceOnUse">
<stop stop-color="#02C2CC"/>
<stop offset="0.51" stop-color="#4174DA"/>
<stop offset="1" stop-color="#7D2AE7"/>
</linearGradient>
<linearGradient id="paint4_linear_2413_20699" x1="-10.1737" y1="13.1311" x2="26.1847" y2="54.4064" gradientUnits="userSpaceOnUse">
<stop stop-color="#02C2CC"/>
<stop offset="0.51" stop-color="#4174DA"/>
<stop offset="1" stop-color="#7D2AE7"/>
</linearGradient>
<linearGradient id="paint5_linear_2413_20699" x1="3.23365" y1="1.32117" x2="39.5938" y2="42.5964" gradientUnits="userSpaceOnUse">
<stop stop-color="#02C2CC"/>
<stop offset="0.51" stop-color="#4174DA"/>
<stop offset="1" stop-color="#7D2AE7"/>
</linearGradient>
<linearGradient id="paint6_linear_2413_20699" x1="3.86882" y1="0.760023" x2="40.2271" y2="42.0353" gradientUnits="userSpaceOnUse">
<stop stop-color="#02C2CC"/>
<stop offset="0.51" stop-color="#4174DA"/>
<stop offset="1" stop-color="#7D2AE7"/>
</linearGradient>
<linearGradient id="paint7_linear_2413_20699" x1="17.2758" y1="-11.05" x2="53.6359" y2="30.2253" gradientUnits="userSpaceOnUse">
<stop stop-color="#02C2CC"/>
<stop offset="0.51" stop-color="#4174DA"/>
<stop offset="1" stop-color="#7D2AE7"/>
</linearGradient>
<clipPath id="clip0_2413_20699">
<rect width="44.8598" height="44.8598" fill="white"/>
</clipPath>
</defs>
</svg>
